<svg class="jss110" width="16" height="16" viewBox="0 0 1024 1024" xmlns="http://www.w3.org/2000/svg" style="display: flex; vertical-align: middle; min-width: auto;"><path d="M603.484 510.444c-0.296 49.435-40.44 89.395-89.916 89.395-49.66 0-89.917-40.257-89.917-89.917s40.257-89.917 89.916-89.917l-0 0c49.684 0.11 89.918 40.413 89.918 90.112 0 0.101-0 0.202-0 0.302l0-0.016zM717.875 961.382c-49.388 0-111.616-30.218-175.104-85.135q-13.537-11.745-27.331-25.088-10.598 10.24-21.156 19.599c-88.34 77.517-180.9 108.769-232.97 78.377-51.384-29.839-69.181-115.917-47.596-230.195 2.212-11.725 4.854-23.839 7.916-36.209-9.411-2.693-18.565-5.612-27.423-8.602-113.5-39.076-183.972-101.786-183.972-163.686 0-59.668 65.27-118.18 174.561-156.488 11.919-4.198 24.392-8.090 37.427-11.817-2.806-11.51-5.284-22.733-7.455-33.731-22.692-116.9-5.54-204.564 45.896-234.496 52.541-30.648 145.521 2.273 236.544 83.507 5.581 5.007 11.264 10.24 16.855 15.626 8.428-8.131 16.814-15.923 25.16-23.204 87.839-76.974 174.356-106.67 224.932-77.24 53.555 31.037 71.27 125.952 46.234 247.747-1.485 7.363-3.154 14.848-5.028 22.385q16.927 4.884 32.655 10.363c111.974 38.779 178.811 97.597 178.811 157.389 0 62.024-72.97 124.815-190.392 163.942-6.144 2.048-12.472 4.096-18.903 5.949 2.304 9.288 4.342 18.36 6.093 27.31 23.327 118.354 4.598 211.108-48.753 242.012-12.965 7.365-28.48 11.705-45.009 11.705-0.701 0-1.4-0.008-2.097-0.023l0.104 0.002zM545.065 820.388c8.52 8.264 16.988 16.097 25.457 23.368 55.009 47.514 108.739 74.752 147.395 74.752 0.51 0.018 1.11 0.029 1.711 0.029 8.77 0 17.023-2.213 24.23-6.112l-0.27 0.134c28.948-16.824 50.176-85.524 28.273-196.731-1.618-8.049-3.451-16.312-5.489-24.699-38.785 9.357-85.402 16.854-132.995 20.936l-3.627 0.251-0.082 0.082c-27.706 40.442-55.502 75.664-85.432 108.927l0.829-0.936zM262.963 693.176c-2.857 11.561-5.325 22.774-7.363 33.731-19.927 105.472-0.768 168.96 27.075 185.17 7.175 3.892 15.709 6.18 24.777 6.18 0.689 0 1.375-0.013 2.058-0.039l-0.098 0.003c41.431 0 100.055-29.747 156.887-79.657q9.646-8.479 19.333-17.889c-29.887-32.41-58.327-67.518-84.445-104.387l-2.196-3.266h-0.082c-50.88-3.956-97.338-10.965-142.649-21.023l6.702 1.249zM454.164 716.288q30.013 39.803 61.051 73.492c19.979-22.151 39.511-46.177 57.788-71.177l1.778-2.551c-39.885 1.823-81.162 1.864-120.607 0.236zM422.236 671.775c26.592 1.841 57.632 2.89 88.916 2.89 33.326 0 66.373-1.19 99.103-3.531l-4.396 0.252c16.476-24.822 32.768-51.2 48.364-78.5s30.228-54.743 43.387-82.053c-13.158-26.757-27.761-54.057-43.469-81.326-15.493-26.921-31.805-53.115-48.538-77.947-27.519-2.177-59.585-3.419-91.94-3.419s-64.422 1.241-96.153 3.679l4.213-0.26c-17.029 25.088-33.464 51.364-48.876 78.285s-29.798 54.272-42.916 81.674c13.117 27.351 27.546 54.835 43.008 81.715s32.102 53.248 49.306 78.592zM274.412 651.868c25.146 5.788 56.993 11.12 89.35 14.771l4.192 0.384c-10.988-17.121-21.627-34.673-31.846-52.388-10.045-17.408-19.63-35.103-28.785-52.818-12.892 30.679-23.88 60.856-32.901 90.051zM720.609 560.292q-13.988 27.095-29.46 54.057c-10.138 17.725-20.562 35.103-31.119 51.968 37.117-4.418 69.304-10.127 100.864-17.471l-6.175 1.21c-11.85-36.898-23.409-66.621-36.426-95.546l2.327 5.782zM233.718 383.355c-12.093 3.42-23.757 7.107-34.867 10.998-100.864 35.359-145.992 83.814-145.992 116.081 0 33.597 48.579 86.426 155.187 123.146 8.049 2.744 16.384 5.396 25.037 7.875 16.084-51.771 32.971-94.804 52.49-136.357l-2.724 6.452v-0.082c-16.571-34.603-33.248-77.040-47.126-120.724l-2.026-7.388zM744.919 510.7c17.294 34.916 34.587 77.417 48.993 121.228l2.053 7.213c5.786-1.71 11.54-3.512 17.070-5.396 110.776-36.864 161.188-89.805 161.188-123.279 0-32.317-46.408-80.988-150.118-116.9-9.708-3.338-19.753-6.554-30.147-9.544-15.816 50.384-32.452 92.315-51.683 132.774l2.634-6.157zM660.152 357.1q15.77 24.914 30.822 50.975c10.24 17.766 20.009 35.523 29.245 53.115 10.111-22.471 21.132-51.599 30.673-81.389l1.798-6.501c-29.245-6.676-60.201-12.114-92.559-16.22zM275.057 372.9c8.858 28.672 19.63 58.214 32.276 88.3q13.67-26.624 28.672-52.736c10.004-17.459 20.48-34.632 31.119-51.446-32.225 3.994-62.945 9.308-92.068 15.882zM629.361 310.661c50.981 4.718 96.95 12.276 141.789 22.772l-6.948-1.371c1.659-6.892 3.195-13.65 4.557-20.378 23.552-114.883 3.072-185.252-25.805-202.035-32.246-18.647-105.748 11.151-175.749 72.397-7.752 6.758-15.452 13.916-23.286 21.443 29.5 32.151 57.518 67.055 83.158 103.743l2.161 3.265 0.082 0.133zM307.825 104.991c-0.543-0.021-1.182-0.032-1.823-0.032-8.805 0-17.093 2.214-24.337 6.116l0.273-0.135c-27.74 16.2-46.367 80.998-25.354 189.256q3 15.36 6.984 31.375c37.784-8.936 83.696-16.349 130.502-20.675l4.113-0.307h0.082c28.085-39.884 56.321-74.77 86.667-107.682l-0.651 0.715q-7.66-7.383-15.288-14.172c-59.31-52.859-119.511-84.449-161.147-84.449zM513.567 305.316c20.183 0 40.315 0.471 60.283 1.454-20.091-27.013-39.671-50.663-60.372-73.269l0.622 0.688c-20.398 22.129-40.571 46.356-60.283 72.509 19.814-0.942 39.803-1.382 59.75-1.382z" fill="rgb(119, 207, 238)"></path></svg>